<?xml version="1.0" standalone="no"?><!DOCTYPE svg PUBLIC "-//W3C//DTD SVG 1.1//EN" "http://www.w3.org/Graphics/SVG/1.1/DTD/svg11.dtd"><svg t="1763452905422" class="icon" viewBox="0 0 1024 1024" version="1.1" xmlns="http://www.w3.org/2000/svg" p-id="1674" xmlns:xlink="http://www.w3.org/1999/xlink" width="200" height="200"><path d="M180.4 675.6h34l-16.8-49.6zM80 664.8h-28v33.6h28c12 0 18-7.6 18-16.8 0-9.2-6-16.8-18-16.8zM96 625.2c0-9.6-6.4-15.6-17.6-15.6H52v31.6h26c11.6-0.4 18-6.8 18-16z" fill="#2A2A2A" p-id="1675"></path><path d="M1016.8 183.6L840 30c-0.4 0-0.4-0.4-0.4-0.4l-22.8-19.6c-2.8-2.4-6-4-9.2-4.4-1.6-0.4-2.8-0.4-4.4-0.4H248c-33.6 0-61.2 27.6-61.2 61.2v398H23.2c-12.8 0-23.2 10.4-23.2 23.2v305.2c0 12.8 10.4 23.2 23.2 23.2h163.6v138.8c0 33.6 27.6 61.2 61.2 61.2h714.4c33.6 0 61.2-27.6 61.2-61.2V203.2c1.6-7.2-0.8-14.8-6.8-19.6z m-193.2-113.6l125.2 108.4h-125.2V70zM82.8 722.4H25.6v-136.8h54.8c26.8 0 42.4 14.8 42.4 38.4 0 15.2-10 24.8-16.8 28.4 8.4 4 18.8 12.4 18.8 30.8-0.4 25.2-17.6 39.2-42 39.2z m90-24.4l-8.4 24h-28l49.6-136.8h20.8l50 136.8h-28l-8-24h-48z m810 256.8c0 11.2-9.2 20.4-20.4 20.4H248c-11.2 0-20.4-9.2-20.4-20.4V816H684c12.8 0 23.2-10.4 23.6-23.2v-305.2c0-12.8-10.4-23.2-23.2-23.2H227.6V66.4c0-11.2 9.2-20.4 20.4-20.4h534.4v153.2c0 10 7.2 18 16.4 20 1.6 0.4 2.8 0.4 4.4 0.4h179.6v735.2zM332.4 671.2c-2.8-2.4-5.6-4-12-4.8L304 664c-11.6-1.6-20.4-5.2-26.4-11.2-6.4-6.4-9.6-15.2-9.6-26.8 0-24.4 18-41.6 47.6-41.6 18.8 0 32.4 4.8 44 16l-16.8 16.8c-8.8-8.4-19.2-9.6-28-9.6-14.4 0-21.2 8-21.2 17.2 0 3.6 1.2 7.2 4 9.6 2.8 2.4 7.2 4.8 12.8 5.2l16 2.4c12.4 1.6 20.4 5.2 26 10.4 7.2 6.8 10.4 16.8 10.4 28.8 0 26.4-22 41.6-50.8 41.6-20.8 0-36.4-4.4-50-18l17.2-17.2c8.8 8.8 20.4 11.6 33.2 11.6 15.6 0 24-6 24-16.8 0-4.4-1.2-8.4-4-11.2z m136-29.6v24h-54v33.2h63.2v24H387.6v-136.8h90v24h-63.2v32h54z m78-1.2c18.4 0 36 15.2 36 40.4 0 26.8-18.4 42.8-42.8 42.8s-42.8-15.2-42.8-42.4c0-12.4 5.2-24 11.6-36.4l28.8-59.2h27.2l-28.4 56.4c3.6-1.2 7.2-1.6 10.4-1.6z m107.6 38.8v-25.6h24v25.6h12.4v23.6h-12.4v19.2h-24v-19.2h-56v-23.6l46.8-93.6h27.2l-46.8 93.6h28.8z" fill="#2A2A2A" p-id="1676"></path><path d="M522 681.2c0 12.8 7.6 20 17.6 20s17.6-7.2 17.6-20c0-12-7.2-20-17.6-20-10 0-17.6 7.2-17.6 20z" fill="#2A2A2A" p-id="1677"></path></svg>