<?xml version="1.0" standalone="no"?><!DOCTYPE svg PUBLIC "-//W3C//DTD SVG 1.1//EN" "http://www.w3.org/Graphics/SVG/1.1/DTD/svg11.dtd"><svg t="1763637162058" class="icon" viewBox="0 0 1024 1024" version="1.1" xmlns="http://www.w3.org/2000/svg" p-id="6642" xmlns:xlink="http://www.w3.org/1999/xlink" width="200" height="200"><path d="M149.333333 683.946667a32 32 0 0 1 31.701334 27.690666l0.298666 4.352v84.522667c0 22.869333 17.28 41.685333 39.509334 44.117333l4.821333 0.256h572.672a44.373333 44.373333 0 0 0 44.074667-39.552l0.256-4.821333v-76.544a32 32 0 0 1 63.701333-4.352l0.298667 4.352v76.544a108.373333 108.373333 0 0 1-101.248 108.117333l-7.082667 0.256H225.664a108.373333 108.373333 0 0 1-108.117333-101.248l-0.213334-7.125333v-84.522667a32 32 0 0 1 32-32z m144.64-324.437334v232.96h39.253334v60.501334H194.048v-61.141334h39.253333v-95.274666l-20.266666 21.248L170.666667 474.666667l123.306666-115.157334z m368.64 0l191.488 0.64-69.674666 95.061334c5.845333 1.28 11.690667 3.925333 16.896 6.528 9.813333 4.608 18.901333 11.818667 27.349333 20.992 7.850667 8.533333 14.336 18.986667 18.261333 29.482666 4.565333 9.813333 7.168 22.272 7.168 35.413334 0 13.738667-2.602667 26.197333-7.168 37.333333a95.402667 95.402667 0 0 1-20.864 30.805333 92.245333 92.245333 0 0 1-29.952 20.992c-11.093333 4.565333-23.466667 7.210667-37.12 7.210667h-92.458666v-62.293333h92.458666a32.938667 32.938667 0 0 0 13.056-2.602667 37.205333 37.205333 0 0 0 10.410667-7.253333c3.242667-3.882667 5.845333-7.808 7.808-11.776a26.752 26.752 0 0 0 2.602667-12.416c0-4.608-0.64-8.533333-2.602667-12.458667a31.061333 31.061333 0 0 0-7.808-11.818667 33.28 33.28 0 0 0-10.410667-7.210666 32.938667 32.938667 0 0 0-13.056-2.602667H661.333333l74.24-93.056h-72.96V359.509333z m-177.365333 0c13.909333 0 26.453333 2.56 39.68 7.765334 11.946667 5.162667 22.528 11.648 32.426667 20.693333 9.301333 8.405333 16.597333 19.370667 21.888 31.658667s7.936 25.216 7.936 38.144a101.973333 101.973333 0 0 1-28.458667 71.765333l-45.653333 52.992h66.816v61.44H384l13.909333-15.530667c4.608-5.162667 9.258667-11.648 15.189334-18.773333 2.688-3.84 5.973333-7.722667 9.301333-11.605333 3.968-5.162667 7.936-11.008 12.544-16.170667 5.973333-7.125333 11.264-14.208 17.237333-21.333333 9.258667-12.288 19.84-25.856 30.421334-38.144l9.941333-11.648c6.613333-7.722667 12.586667-14.848 18.517333-21.333334a46.976 46.976 0 0 0 13.226667-31.658666 37.12 37.12 0 0 0-3.285333-14.208 33.365333 33.365333 0 0 0-7.936-11.648 54.357333 54.357333 0 0 0-13.226667-7.765334 34.346667 34.346667 0 0 0-14.592-3.242666 38.186667 38.186667 0 0 0-22.485333 6.485333 43.605333 43.605333 0 0 0-14.549334 18.090667l-3.968 9.045333-57.6-21.973333 3.328-9.045334c3.285333-9.685333 8.576-18.090667 15.189334-26.496 5.973333-8.405333 13.226667-14.890667 22.528-20.693333a89.6 89.6 0 0 1 27.776-12.928c8.618667-2.56 19.2-3.882667 29.781333-3.882667z m313.088-256a108.373333 108.373333 0 0 1 108.117333 101.205334l0.213334 7.125333v82.773333a32 32 0 0 1-63.701334 4.352l-0.298666-4.309333v-82.773333a44.373333 44.373333 0 0 0-39.509334-44.117334l-4.821333-0.256H225.664a44.373333 44.373333 0 0 0-44.074667 39.509334l-0.256 4.821333v84.394667a32 32 0 0 1-63.701333 4.309333l-0.298667-4.309333V211.84a108.373333 108.373333 0 0 1 101.248-108.117333l7.082667-0.213334h572.672z" fill="#1E2226" p-id="6643"></path></svg>