<?xml version="1.0" standalone="no"?><!DOCTYPE svg PUBLIC "-//W3C//DTD SVG 1.1//EN" "http://www.w3.org/Graphics/SVG/1.1/DTD/svg11.dtd"><svg t="1763627048112" class="icon" viewBox="0 0 1024 1024" version="1.1" xmlns="http://www.w3.org/2000/svg" p-id="5925" xmlns:xlink="http://www.w3.org/1999/xlink" width="200" height="200"><path d="M842.112 0H181.888A182.08 182.08 0 0 0 0 181.888v660.224A182.08 182.08 0 0 0 181.888 1024h660.224A182.08 182.08 0 0 0 1024 842.112V181.888A182.08 182.08 0 0 0 842.112 0z m94.464 842.048c0 52.096-42.368 94.464-94.464 94.464H181.888a94.592 94.592 0 0 1-94.464-94.464V181.888c0-52.096 42.368-94.464 94.464-94.464h660.224c52.096 0 94.464 42.368 94.464 94.464v660.16z" fill="#454859" p-id="5926"></path><path d="M208.768 274.816h71.68v79.296h36.672V172.8h-36.672v71.36h-71.68V172.8H172.16v181.312h36.608zM390.272 312.96H462.72l15.872 41.152H518.4L445.76 172.8h-38.656L336.512 354.112h38.848l14.912-41.152z m35.712-97.792l25.024 67.264h-49.472l24.448-67.264zM603.776 326.464a39.488 39.488 0 0 1-26.56-8.448c-6.528-5.632-10.88-14.4-13.056-26.368l-35.584 3.52c2.368 20.224 9.664 35.712 21.952 46.272 12.288 10.624 29.888 15.936 52.8 15.936 15.808 0 28.864-2.176 39.424-6.592a52.352 52.352 0 0 0 24.512-20.16 53.76 53.76 0 0 0 8.64-29.184 54.08 54.08 0 0 0-7.232-28.864 51.648 51.648 0 0 0-20.032-18.432 177.6 177.6 0 0 0-39.488-13.056c-17.792-4.352-28.992-8.384-33.6-12.224a14.08 14.08 0 0 1-5.504-11.072c0-4.672 1.92-8.448 5.824-11.2a42.112 42.112 0 0 1 25.024-6.592c10.304 0 18.048 1.984 23.168 6.08 5.12 4.16 8.512 10.816 10.112 20.096l36.544-1.536a52.544 52.544 0 0 0-18.112-39.936c-11.456-9.984-28.608-14.976-51.328-14.976-13.952 0-25.856 2.048-35.712 6.272s-17.344 10.304-22.656 18.432a46.72 46.72 0 0 0-7.808 25.856c0 14.4 5.568 26.56 16.704 36.48 7.872 7.104 21.632 13.12 41.344 17.92 15.232 3.84 25.024 6.4 29.248 7.936a29.952 29.952 0 0 1 13.184 7.808c2.56 3.008 3.712 6.656 3.712 10.944a22.336 22.336 0 0 1-8.96 17.536c-5.952 4.992-14.784 7.552-26.56 7.552zM743.488 274.816h71.744v79.296h36.608V172.8h-36.608v71.36h-71.744V172.8h-36.608v181.312h36.608zM423.36 589.248a30.848 30.848 0 0 0-30.848-30.912H318.784v-73.6a30.848 30.848 0 1 0-61.824-0.064v73.6h-73.6a30.912 30.912 0 0 0 0 61.76h73.6v73.664a30.912 30.912 0 0 0 61.76 0v-73.6h73.664a30.912 30.912 0 0 0 30.976-30.848zM871.616 712.896c0-8.32-3.2-16.128-9.088-21.952a30.592 30.592 0 0 0-21.888-9.088c-8.32 0-16.128 3.2-21.952 9.088l-52.032 52.096-52.096-52.096a30.464 30.464 0 0 0-21.824-9.088c-8.32 0-16.064 3.2-21.888 9.088a30.72 30.72 0 0 0 0 43.776l52.032 52.096-52.032 52.096a30.72 30.72 0 0 0 0 43.776 30.72 30.72 0 0 0 43.712-0.064l52.096-52.032 52.032 52.032a30.592 30.592 0 0 0 21.952 9.088c8.256 0 16.064-3.2 21.888-9.088a30.592 30.592 0 0 0 0-43.712l-52.096-52.096 52.096-52.096a30.464 30.464 0 0 0 9.088-21.824zM712.704 458.176a26.88 26.88 0 0 0-38.72 2.304l-334.464 384.448a28.48 28.48 0 0 0 2.24 39.616 26.752 26.752 0 0 0 38.72-2.304l334.464-384.448a28.416 28.416 0 0 0-2.24-39.616z" fill="#454859" p-id="5927"></path></svg>