<?xml version="1.0" standalone="no"?><!DOCTYPE svg PUBLIC "-//W3C//DTD SVG 1.1//EN" "http://www.w3.org/Graphics/SVG/1.1/DTD/svg11.dtd"><svg t="1763452989441" class="icon" viewBox="0 0 1024 1024" version="1.1" xmlns="http://www.w3.org/2000/svg" p-id="2731" xmlns:xlink="http://www.w3.org/1999/xlink" width="200" height="200"><path d="M220.55936 317.10208h187.98592V100.6592h394.81344v300.95872h49.4592V51.2H372.5568L171.20256 283.17696v118.44096h49.3568zM114.46272 440.77568v322.176h56.72448v209.18784l681.63072 0.66048v-209.8432h56.71936V440.77568H114.46272z m379.80672 147.23584c2.11968-23.72096 12.03712-48.26624 32.33792-62.03392 13.3376-8.91392 29.17888-12.99968 45.0816-13.24544a104.63232 104.63232 0 0 1 28.31872 3.57888c18.0992 4.97664 33.85856 17.71008 42.112 34.67776 12.25216 24.60672 13.39904 53.4528 8.8576 80.19456-3.80928 21.89824-16.96768 42.86976-37.83168 52.1216-12.23168 5.6832-25.94816 7.63392-39.43936 7.63392-23.23968 0.37376-48.09216-7.11168-62.63296-26.28096-16.66048-21.52448-19.08736-50.37568-16.80384-76.6464z m-56.7296 39.53152c-9.76896-9.01632-23.99232-9.33376-36.28032-12.7232-17.79712-4.39808-37.48864-8.48896-49.97632-22.95808-9.7024-11.86304-10.61376-28.7744-7.20384-43.17184 4.6848-19.1488 23.48544-31.03744 41.8816-34.28864 6.07744-1.06496 12.288-1.5872 18.57024-1.5872 18.78528 0 37.71904 5.29408 51.25632 18.78528 9.40544 9.45664 14.24896 22.77376 14.70464 35.95776h-33.17248c-0.36352-11.12064-8.1152-21.65248-19.30752-23.78752-11.97056-2.33984-25.61024-2.93376-36.35712 3.49184-10.13248 6.51264-9.92768 23.94112 1.22368 29.32224 13.07648 6.95808 28.18048 8.11008 42.10176 12.47744 14.61248 4.4032 30.8992 8.25344 41.4976 20.096 9.84576 12.7232 11.12576 30.36672 7.2704 45.5168-5.29408 17.80224-22.0416 29.68064-39.61344 33.5616-17.40288 4.30592-35.97312 3.18976-53.39648-0.83456-17.3312-3.87584-32.78848-14.848-39.00928-33.40288-1.64864-4.93056-3.18976-18.87744-3.18976-18.87744h33.63328c-0.37888 12.73344 10.0608 23.12192 21.89824 25.82016 12.48768 2.9696 26.65472 2.88256 38.09792-3.456 10.37824-5.62688 13.02528-21.15584 5.37088-29.94176z m-224.67584-5.4528h31.58016v15.3856c0 16.512 6.51264 25.0624 19.83488 25.0624 17.03936 0 19.93728-12.7232 19.93728-25.59488l-0.01024-118.59968h34.90816v121.856c0 15.22688-4.62336 27.5712-13.85984 36.95616-9.17504 9.25184-22.87616 13.78304-40.99072 13.78304-16.21504 0-28.8512-4.23424-37.9392-12.8-9.00096-8.70912-13.4656-21.65248-13.4656-38.9376v-17.11104z m590.49472 301.2096l-582.80448-0.53248v-159.81056h582.80448v160.34304z m7.95136-238.13632h-32.16896l-71.42912-112.06656v112.06656h-32.39936v-166.82496h36.95104l66.35008 107.3152v-107.3152h32.70144v166.82496z" p-id="2732"></path><path d="M551.22944 656.25088c6.90176 3.47648 14.7712 4.75648 22.48192 4.75648 16.20992 0.62464 32.11776-8.92416 38.71232-23.76192 8.33024-18.03264 7.808-38.87104 4.00896-57.87648-3.0976-15.49824-13.76768-30.59712-29.91104-34.14016a52.81792 52.81792 0 0 0-13.0816-1.59232c-13.27104 0.0768-26.67008 5.06368-34.3296 16.32768-11.82208 17.21856-12.19072 39.48032-10.21952 59.47904 1.5872 14.63296 8.2688 30.27456 22.33856 36.80768z" p-id="2733"></path></svg>