<?xml version="1.0" standalone="no"?><!DOCTYPE svg PUBLIC "-//W3C//DTD SVG 1.1//EN" "http://www.w3.org/Graphics/SVG/1.1/DTD/svg11.dtd"><svg t="1763453218522" class="icon" viewBox="0 0 1024 1024" version="1.1" xmlns="http://www.w3.org/2000/svg" p-id="12580" xmlns:xlink="http://www.w3.org/1999/xlink" width="200" height="200"><path d="M292.571429 109.714286a182.857143 182.857143 0 0 1 182.674285 174.921143L475.428571 292.571429v36.571428h-73.142857V292.571429a109.714286 109.714286 0 0 0-219.245714-6.436572L182.857143 292.571429v438.857142a109.714286 109.714286 0 0 0 219.245714 6.436572L402.285714 731.428571h73.142857a182.857143 182.857143 0 0 1-365.531428 7.936L109.714286 731.428571V292.571429a182.857143 182.857143 0 0 1 182.857143-182.857143z m548.352 32.402285L841.142857 146.285714v694.857143h73.142857a36.571429 36.571429 0 0 1 4.278857 72.886857L914.285714 914.285714h-219.428571a36.571429 36.571429 0 0 1-4.278857-72.886857L694.857143 841.142857h73.142857V234.569143l-47.286857 47.286857a36.571429 36.571429 0 0 1-48.274286 3.035429l-3.437714-3.035429a36.571429 36.571429 0 0 1-3.035429-48.274286l3.035429-3.437714 109.714286-109.714286c22.016-22.052571 59.026286-8.045714 62.208 21.686857zM658.285714 548.571429a36.571429 36.571429 0 0 1 4.278857 72.886857L658.285714 621.714286h-204.251428l10.678857 10.715428a36.571429 36.571429 0 0 1 3.035428 48.274286l-3.035428 3.437714a36.571429 36.571429 0 0 1-48.274286 3.035429l-3.437714-3.035429-73.142857-73.142857c-22.052571-22.016-8.045714-59.026286 21.686857-62.208L365.714286 548.571429h292.571428z m-50.724571-248.32l3.437714 3.035428 73.142857 73.142857c22.052571 22.016 8.045714 59.026286-21.686857 62.208L658.285714 438.857143h-292.571428a36.571429 36.571429 0 0 1-4.278857-72.886857L365.714286 365.714286h204.251428l-10.678857-10.715429a36.571429 36.571429 0 0 1-3.035428-48.274286l3.035428-3.437714a36.571429 36.571429 0 0 1 48.274286-3.035428z" fill="#8E8E94" p-id="12581"></path></svg>