<?xml version="1.0" standalone="no"?><!DOCTYPE svg PUBLIC "-//W3C//DTD SVG 1.1//EN" "http://www.w3.org/Graphics/SVG/1.1/DTD/svg11.dtd"><svg t="1763707416902" class="icon" viewBox="0 0 1024 1024" version="1.1" xmlns="http://www.w3.org/2000/svg" p-id="7550" xmlns:xlink="http://www.w3.org/1999/xlink" width="200" height="200"><path d="M629.261049 694.754063c0 33.913283 27.496012 61.409295 61.409296 61.409295s61.409295-27.496012 61.409295-61.409295-27.496012-61.409295-61.409295-61.409295-61.409295 27.496012-61.409296 61.409295z m0 0" fill="#E94236" p-id="7551"></path><path d="M553.113523 584.785367c0 18.990825 15.398381 34.389205 34.389206 34.389206s34.389205-15.398381 34.389205-34.389206-15.398381-34.389205-34.389205-34.389205c-18.990825 0.007676-34.389205 15.398381-34.389206 34.389205z m0 0" fill="#FABA06" p-id="7552"></path><path d="M512.069085 634.296612c33.468066 0 60.595622 27.127556 60.595623 60.587946s-27.127556 60.587946-60.595623 60.587946" fill="#4286F5" p-id="7553"></path><path d="M635.064228 510.011874c0-66.629085-55.061109-121.697871-122.987466-121.697871S389.081619 443.375112 389.081619 511.309145c0 67.926357 55.068786 122.995142 122.995143 122.995143V755.487856C377.214273 755.48018 267.898051 646.156282 267.898051 511.309145 267.898051 376.454333 377.221949 267.130435 512.076762 267.130435c134.854813 0 244.171034 109.323898 244.171034 242.881439H635.064228z" fill="#4286F5" p-id="7554"></path><path d="M635.064228 509.267286c0 33.46039 27.127556 60.587946 60.587946 60.587946s60.587946-27.127556 60.587946-60.587946" fill="#4286F5" p-id="7555"></path></svg>