<?xml version="1.0" standalone="no"?><!DOCTYPE svg PUBLIC "-//W3C//DTD SVG 1.1//EN" "http://www.w3.org/Graphics/SVG/1.1/DTD/svg11.dtd"><svg t="1763453020084" class="icon" viewBox="0 0 1188 1024" version="1.1" xmlns="http://www.w3.org/2000/svg" p-id="3713" xmlns:xlink="http://www.w3.org/1999/xlink" width="232.03125" height="200"><path d="M800.736 0c105.82 0 191.66 92.514 191.66 206.57v72.249h-145.87l19.45 169.023h-75.89l-19.45-169.036H283.37c13.52-26.738 21.163-57.413 21.163-89.98 0-48.159-16.814-79.492-44.33-112.829h-22.338c-21.169 0-29.88 2.933-44.228 19.659-14.349 16.731-15.075 32.085-13.432 54.77l67.142 793.342h601.878V1024h-672.85v-0.253C78.077 1018.425 0 930.98 0 823.764l1.176-77.887H154.15l-49.74-590.128C98.184 71.863 159.674 0 237.871 0zM160.08 806.918H58.229l-0.126 5.5c0.126 35.859 13.482 69.594 37.692 94.953 20.751 21.745 47.344 35.24 76.092 38.609l-11.808-139.062z m873.32-282.276c49.968 0 71.668 14.159 82.268 39.949v-34.892h72.679v251.828c0 74.84-37.857 122.374-150.914 122.374-24.728 0-55.517-2.528-77.723-6.574v-58.153c21.7 5.563 48.45 8.091 72.173 8.091 59.05 0 83.785-16.687 83.785-68.772v-14.665c-11.612 24.273-33.312 38.937-82.268 38.937-88.33 0-110.535-56.13-110.535-139.061 0-74.84 22.206-139.062 110.535-139.062z m-284.703 0c95.447 0 117.28 49.778 117.28 120.383 0 15.74-1.012 30.474-2.542 38.09l-176.678 11.176c2.535 39.114 25.385 56.889 74.12 56.889 33.514 0 73.115-9.646 90.883-19.298v57.9c-16.245 9.652-57.369 19.304-105.099 19.304-83.772 0-133.524-30.985-133.524-142.222s49.752-142.222 135.56-142.222z m-324.69-75.852c95.56 0 136.95 30.6 136.95 112.21 0 59.165-20.948 90.789-66.434 104.562l99.65 137.203h-91.47l-83.298-129.043H381.08v129.043h-77.673V448.79z m631.258 126.42c-50.543 0-56.548 40.638-56.548 84.828v1.396c0.133 46.112 7.004 84.443 56.548 84.443 54.044 0 63.55-31.492 63.55-85.84 0-52.318-9.506-84.827-63.55-84.827z m-303.471 0c-45.815 0-61.263 19.88-62.805 63.21l113.777-8.666c0-30.076-7.205-54.544-50.966-54.544zM412.204 512H379.26v107.457h30.695c51.326 0 70.441-10.335 70.441-55.796 0-42.875-19.12-51.661-70.441-51.661zM784.782 69.872H361.371c17.66 33.843 27.66 73.008 27.66 114.726 0 8.116-0.423 16.226-1.169 24.336h517.12v-8.11c0-35-12.56-67.906-35.214-92.59-22.66-24.683-52.875-38.362-84.998-38.362z" p-id="3714"></path></svg>