<?xml version="1.0" standalone="no"?><!DOCTYPE svg PUBLIC "-//W3C//DTD SVG 1.1//EN" "http://www.w3.org/Graphics/SVG/1.1/DTD/svg11.dtd"><svg t="1763702206445" class="icon" viewBox="0 0 1024 1024" version="1.1" xmlns="http://www.w3.org/2000/svg" p-id="4916" xmlns:xlink="http://www.w3.org/1999/xlink" width="200" height="200"><path d="M512 938.6496a426.6496 426.6496 0 1 1 0-853.2992 426.6496 426.6496 0 0 1 0 853.2992z m0-85.2992a341.3504 341.3504 0 1 0 0-682.7008 341.3504 341.3504 0 0 0 0 682.7008z m42.6496-405.3504v192h42.6496v85.3504H426.6496V640h42.6496v-106.6496h-42.6496V448h128z m21.2992-106.6496a64 64 0 1 1-128 0 64 64 0 0 1 128 0z" p-id="4917"></path></svg>